 <svg width="20px" height="20px" viewBox="0 0 20 20">
                                            <g fill="none" fill-rule="evenodd">
                                                <g fill="#17B355">
                                                    <path
                                                        d="M10 20c5.523 0 10-4.477 10-10S15.523 0 10 0 0 4.477 0 10s4.477 10 10 10z">
                                                    </path>
                                                </g>
                                                <g transform="translate(5.000000, 5.000000)">
                                                    <rect width="10" height="10"></rect>
                                                    <path
                                                        d="M9.614.685a.823.823 0 00-.686-.168.991.991 0 00-.613.385L3.983 7.23 1.601 4.656a.82.82 0 00-.65-.313.966.966 0 00-.674.264 1.044 1.044 0 00-.276.698.952.952 0 00.252.698c1.925 2.15 3.024 3.329 3.297 3.538a.93.93 0 00.71.18.837.837 0 00.59-.397l4.98-7.267a.974.974 0 00.157-.722.964.964 0 00-.373-.65z"
                                                        fill="#FFF"></path>
                                                </g>
                                            </g>
                                        </svg>